<?xml version="1.0" encoding="iso-8859-1"?>
<!-- Generator: Adobe Illustrator 20.0.0, SVG Export Plug-In . SVG Version: 6.00 Build 0)  -->
<svg version="1.1" xmlns="http://www.w3.org/2000/svg" xmlns:xlink="http://www.w3.org/1999/xlink" x="0px" y="0px"
	 viewBox="0 0 180 180" style="enable-background:new 0 0 180 180;" xml:space="preserve">
<g id="eurlig">
	<g>
		<path style="fill:#FAC45E;" d="M90.818,2.461c48.48,0,87.781,39.301,87.781,87.782s-39.301,87.781-87.781,87.781
			S3.037,138.723,3.037,90.243S42.338,2.461,90.818,2.461"/>
		<path style="fill:#A8ABB0;" d="M90.818,2.461v1.976c23.701,0.001,45.14,9.601,60.673,25.132
			c15.531,15.534,25.131,36.973,25.132,60.674c-0.001,23.701-9.6,45.14-25.132,60.673c-15.533,15.531-36.972,25.131-60.673,25.132
			c-23.701-0.001-45.14-9.6-60.674-25.132C14.614,135.383,5.014,113.944,5.013,90.243c0.001-23.701,9.601-45.14,25.132-60.674
			C45.678,14.038,67.117,4.438,90.818,4.437V2.461V0.485C41.246,0.486,1.062,40.67,1.061,90.243
			C1.062,139.815,41.246,179.999,90.818,180c49.572-0.001,89.756-40.185,89.757-89.757C180.574,40.67,140.39,0.486,90.818,0.485
			V2.461"/>
		<path style="fill:#891727;" d="M109.997,4.574c-0.503-0.101-0.972-0.235-1.475-0.335c-5.7-1.174-11.635-1.777-17.704-1.777
			c-5.465,0-10.797,0.503-15.96,1.442C69.862,26.469,58.294,106.672,127.5,170.01c1.107-0.503,2.213-1.039,3.286-1.609
			c0.637-0.335,1.241-0.636,1.878-1.006c0.335-0.167,0.636-0.368,0.972-0.536C119.285,136.883,90.986,65.866,109.997,4.574"/>
		<path style="fill:#E5A051;" d="M123.548,169.586C49.677,118.317,47.29,41.623,48.879,15.367c7.832-4.397,16.425-7.6,25.531-9.363
			c-5.109,24.894-13.972,101.289,51.521,162.555C125.143,168.913,124.348,169.255,123.548,169.586"/>
		<path style="fill:#A28C94;" d="M125.488,170.916c-0.653-0.443-1.298-0.884-1.94-1.33c0.8-0.331,1.596-0.674,2.383-1.028
			c0.519,0.485,1.041,0.968,1.569,1.451c1.107-0.503,2.213-1.039,3.286-1.609c0.106-0.055,0.21-0.11,0.315-0.164
			c0.006,0.01,0.014,0.021,0.02,0.031c-0.1,0.034-0.234,0.1-0.335,0.167C129.042,169.307,127.299,170.145,125.488,170.916
			 M48.879,15.367c0.05-0.834,0.105-1.614,0.161-2.344c7.944-4.304,16.629-7.418,25.814-9.102c-0.143,0.648-0.292,1.342-0.444,2.083
			C65.304,7.767,56.711,10.97,48.879,15.367"/>
		<path style="fill:#891727;" d="M127.5,170.01c-0.528-0.483-1.05-0.966-1.569-1.451C60.438,107.293,69.301,30.898,74.41,6.004
			c0.152-0.741,0.301-1.435,0.444-2.083c3.337-0.612,6.739-1.035,10.197-1.259c-14.178,66.767,27.933,138.593,46.05,165.574
			c-0.105,0.054-0.209,0.109-0.315,0.164C129.713,168.971,128.606,169.507,127.5,170.01"/>
	</g>
</g>
<g id="Layer_1">
</g>
</svg>
