<svg id="Layer_1" data-name="Layer 1" xmlns="http://www.w3.org/2000/svg" xmlns:xlink="http://www.w3.org/1999/xlink" viewBox="0 0 180 180"><defs><style>.cls-1,.cls-6{fill:none;}.cls-2{fill:#fff;}.cls-3{clip-path:url(#clip-path);}.cls-4{fill:#231f20;}.cls-5{clip-path:url(#clip-path-2);}.cls-6{stroke:#e2e2e2;stroke-miterlimit:10;stroke-width:4px;}</style><clipPath id="clip-path"><path class="cls-1" d="M89.8,3A87.2,87.2,0,1,1,2.6,90.2,87.212,87.212,0,0,1,89.8,3Z"/></clipPath><clipPath id="clip-path-2"><rect class="cls-1" x="0.6" y="1.1" width="178.4" height="178.4"/></clipPath></defs><title>UEFA</title><path class="cls-2" d="M89.8,3A87.2,87.2,0,1,1,2.6,90.2,87.212,87.212,0,0,1,89.8,3Z"/><g class="cls-3"><path class="cls-4" d="M148.876,101.557a174.783,174.783,0,0,0-2.018-18.86,226.054,226.054,0,0,1-9.394,21.814,87.826,87.826,0,0,1-21.283-.2,86.8,86.8,0,0,0,13.909,13.823,131.615,131.615,0,0,1-9.376,14.061,51.053,51.053,0,0,0,18.451-8.048,18.384,18.384,0,0,1,5.333,5.409s3.1-4.4,4.164-14.584a45.227,45.227,0,0,0,8.818-20.322,18.88,18.88,0,0,1-8.6,6.909Z"/><path class="cls-4" d="M145.018,63.079c6.8,1.3,8.957,3.834,8.957,3.834A47.969,47.969,0,0,0,140.24,49.028c-4.588-9.635-9.868-14.084-9.868-14.084a14.88,14.88,0,0,1-.716,7.316,65.861,65.861,0,0,0-21.84-6.45,93.289,93.289,0,0,1,17.584,15.3,94.741,94.741,0,0,1-10.789,13.982,103.742,103.742,0,0,1,19.9-2.74A137.376,137.376,0,0,1,146.859,82.7a82.4,82.4,0,0,0-1.841-19.617Z"/><path class="cls-4" d="M70.168,44.183a65.64,65.64,0,0,0,8.02,10.108,46.5,46.5,0,0,1,7.047-17,146.716,146.716,0,0,1,22.58-1.474,83.776,83.776,0,0,0-15.777-6.063,32.023,32.023,0,0,1,12.119-6.656,64.666,64.666,0,0,0-26,4.212C67.32,26.441,60.417,28.32,60.417,28.32c1.622,1.223,2.992,3.409,4.392,6.023A59.1,59.1,0,0,0,51,47.146a95.525,95.525,0,0,1,17.149-6.4c.631,1.156,1.291,2.309,2.016,3.438Z"/><path class="cls-4" d="M38.252,57.791A120,120,0,0,1,51,47.144a44.179,44.179,0,0,0-9.662,1.263,52.376,52.376,0,0,1,6.927-12.36s-20.91,14.872-24.88,41.6c0,0,1.757-4.833,7.715-12.121a41.948,41.948,0,0,0,5.086,8.634,68.692,68.692,0,0,1,2.063-16.367Z"/><path class="cls-4" d="M55.009,85.835c6.553,2.954,13.358,5.532,19.945,7.75a129.331,129.331,0,0,0,3.928,23.968c3.676-6.562,7.714-13.088,11.724-19.193,14.65,4.041,25.573,5.949,25.573,5.949A225.734,225.734,0,0,1,99.4,85.443c8.5-12.025,15.2-20.348,15.2-20.348-9.019,2-17.546,4.441-25.183,6.951A210.064,210.064,0,0,1,78.186,54.291,107.452,107.452,0,0,0,74.7,77.3c-12.122,4.7-19.7,8.532-19.7,8.532h0A118.031,118.031,0,0,0,37.626,87.51a119.142,119.142,0,0,1-1.437-13.351,58.491,58.491,0,0,0-7.341,15.657c-5.055,1.873-6.33,3.686-6.33,3.686a22.91,22.91,0,0,0,4.354,7.769c-.623,11.636,3.142,19.323,3.142,19.323a40.7,40.7,0,0,1,4.654-11.76,87.583,87.583,0,0,0,12.322,8.2,76.355,76.355,0,0,1-6.576-16.591,95.781,95.781,0,0,1,14.6-14.607Z"/><path class="cls-4" d="M78.885,117.553a92.275,92.275,0,0,1-15.9,12.17,149.889,149.889,0,0,1-16-12.691,101.71,101.71,0,0,0,7.573,16.8c-4.731,1.77-9.607,2.592-14.066,1.5,0,0,5.267,6.577,21.515,9.368,4.5,5.346,9.993,9.762,16.4,11.3,0,0-1.929-2.118-2.359-10.063a136.522,136.522,0,0,0,14.861-.662,137.287,137.287,0,0,1-14.8-7.342,154.964,154.964,0,0,1,2.777-20.375Z"/><path class="cls-4" d="M108.825,146.031a93.392,93.392,0,0,1-17.91-.761,43.289,43.289,0,0,0,9.668,7.072c-6.836,4.228-11.417,4.6-11.417,4.6,29.925.633,47.882-18.9,47.882-18.9a47.8,47.8,0,0,1-16.683,6.556,36.1,36.1,0,0,0,.349-12.406,82.535,82.535,0,0,1-11.889,13.838Z"/></g><g class="cls-5"><path class="cls-6" d="M89.8,3A87.2,87.2,0,1,1,2.6,90.2,87.212,87.212,0,0,1,89.8,3Z"/></g></svg>